<mxfile host="Electron" modified="2024-05-26T08:57:38.843Z" agent="Mozilla/5.0 (Windows NT 10.0; Win64; x64) AppleWebKit/537.36 (KHTML, like Gecko) draw.io/21.6.8 Chrome/114.0.5735.289 Electron/25.5.0 Safari/537.36" etag="MVrVeNODzfbHTR_QEkeV" version="21.6.8" type="device">
  <diagram name="第 1 页" id="k0-i3akpldJCiXklUMWu">
    <mxGraphModel dx="1468" dy="622" grid="0" gridSize="10" guides="1" tooltips="1" connect="1" arrows="1" fold="1" page="0" pageScale="1" pageWidth="827" pageHeight="1169" math="0" shadow="0">
      <root>
        <mxCell id="0" />
        <mxCell id="1" parent="0" />
        <mxCell id="D7wlAV0YhKwX2Mt3CyZk-1" value="connector" style="rounded=1;whiteSpace=wrap;html=1;" vertex="1" parent="1">
          <mxGeometry x="40" y="200" width="120" height="60" as="geometry" />
        </mxCell>
        <mxCell id="D7wlAV0YhKwX2Mt3CyZk-2" value="connector" style="rounded=1;whiteSpace=wrap;html=1;" vertex="1" parent="1">
          <mxGeometry x="40" y="340" width="120" height="60" as="geometry" />
        </mxCell>
        <mxCell id="D7wlAV0YhKwX2Mt3CyZk-3" value="core" style="rounded=1;whiteSpace=wrap;html=1;" vertex="1" parent="1">
          <mxGeometry x="420" y="200" width="120" height="200" as="geometry" />
        </mxCell>
        <mxCell id="D7wlAV0YhKwX2Mt3CyZk-4" value="queue" style="rounded=0;whiteSpace=wrap;html=1;" vertex="1" parent="1">
          <mxGeometry x="260" y="210" width="60" height="40" as="geometry" />
        </mxCell>
        <mxCell id="D7wlAV0YhKwX2Mt3CyZk-5" value="queue" style="rounded=0;whiteSpace=wrap;html=1;" vertex="1" parent="1">
          <mxGeometry x="260" y="350" width="60" height="40" as="geometry" />
        </mxCell>
        <mxCell id="D7wlAV0YhKwX2Mt3CyZk-6" value="" style="shape=flexArrow;endArrow=classic;html=1;rounded=0;" edge="1" parent="1">
          <mxGeometry width="50" height="50" relative="1" as="geometry">
            <mxPoint x="180" y="230" as="sourcePoint" />
            <mxPoint x="240" y="230" as="targetPoint" />
          </mxGeometry>
        </mxCell>
        <mxCell id="D7wlAV0YhKwX2Mt3CyZk-7" value="" style="shape=flexArrow;endArrow=classic;html=1;rounded=0;" edge="1" parent="1">
          <mxGeometry width="50" height="50" relative="1" as="geometry">
            <mxPoint x="180" y="369.65999999999997" as="sourcePoint" />
            <mxPoint x="240" y="369.65999999999997" as="targetPoint" />
          </mxGeometry>
        </mxCell>
        <mxCell id="D7wlAV0YhKwX2Mt3CyZk-8" value="" style="shape=flexArrow;endArrow=classic;html=1;rounded=0;" edge="1" parent="1">
          <mxGeometry width="50" height="50" relative="1" as="geometry">
            <mxPoint x="340" y="229.66" as="sourcePoint" />
            <mxPoint x="400" y="229.66" as="targetPoint" />
          </mxGeometry>
        </mxCell>
        <mxCell id="D7wlAV0YhKwX2Mt3CyZk-9" value="" style="shape=flexArrow;endArrow=classic;html=1;rounded=0;" edge="1" parent="1">
          <mxGeometry width="50" height="50" relative="1" as="geometry">
            <mxPoint x="340" y="369.65999999999997" as="sourcePoint" />
            <mxPoint x="400" y="369.65999999999997" as="targetPoint" />
          </mxGeometry>
        </mxCell>
        <mxCell id="D7wlAV0YhKwX2Mt3CyZk-10" value="mysql" style="shape=cylinder3;whiteSpace=wrap;html=1;boundedLbl=1;backgroundOutline=1;size=15;" vertex="1" parent="1">
          <mxGeometry x="-100" y="190" width="60" height="80" as="geometry" />
        </mxCell>
        <mxCell id="D7wlAV0YhKwX2Mt3CyZk-11" value="oracle" style="shape=cylinder3;whiteSpace=wrap;html=1;boundedLbl=1;backgroundOutline=1;size=15;" vertex="1" parent="1">
          <mxGeometry x="-100" y="330" width="60" height="80" as="geometry" />
        </mxCell>
        <mxCell id="D7wlAV0YhKwX2Mt3CyZk-14" value="" style="shape=flexArrow;endArrow=classic;html=1;rounded=0;" edge="1" parent="1">
          <mxGeometry width="50" height="50" relative="1" as="geometry">
            <mxPoint x="-30" y="229.66" as="sourcePoint" />
            <mxPoint x="30" y="229.66" as="targetPoint" />
          </mxGeometry>
        </mxCell>
        <mxCell id="D7wlAV0YhKwX2Mt3CyZk-15" value="" style="shape=flexArrow;endArrow=classic;html=1;rounded=0;" edge="1" parent="1">
          <mxGeometry width="50" height="50" relative="1" as="geometry">
            <mxPoint x="-30" y="369.65999999999997" as="sourcePoint" />
            <mxPoint x="30" y="369.65999999999997" as="targetPoint" />
          </mxGeometry>
        </mxCell>
      </root>
    </mxGraphModel>
  </diagram>
</mxfile>
